<svg id="Capa_1" data-name="Capa 1" xmlns="http://www.w3.org/2000/svg" viewBox="0 0 204.23 32.81"><defs><style>.cls-1{fill:#e7aeb8;}.cls-2,.cls-3{fill:#476568;}.cls-3{font-size:22.77px;font-family:OpenSans-Bold, Open Sans;font-weight:700;letter-spacing:0.02em;}.cls-4{letter-spacing:0.04em;}.cls-5{letter-spacing:0.06em;}.cls-6{fill:#e5efb9;}.cls-7{fill:#447762;}.cls-8{fill:#345948;}</style></defs><title>logo</title><path class="cls-1" d="M136,41.23a.56.56,0,0,0-.57.57v3.62A.56.56,0,0,0,136,46a.57.57,0,0,0,.57-.57V41.8A.57.57,0,0,0,136,41.23Z" transform="translate(-22.7 -36.1)"/><path class="cls-1" d="M130.73,41.23a.56.56,0,0,0-.57.57v3.62a.57.57,0,1,0,1.13,0V41.8A.56.56,0,0,0,130.73,41.23Z" transform="translate(-22.7 -36.1)"/><path class="cls-2" d="M134.78,51.58h-2.67c-.53-2.67-4.79-2.13-4.79-2.13V47.32h12v2.13s-4.11-.54-4.62,2.13h-2.57" transform="translate(-22.7 -36.1)"/><text class="cls-3" transform="translate(0 25.94) scale(1.04 1.03)">SPROUT<tspan class="cls-4" x="92.87" y="0"> </tspan><tspan class="cls-5" x="99.79" y="0">THINK</tspan></text><path class="cls-6" d="M224.41,38.93a8.76,8.76,0,0,0-15.21,6.18,9.11,9.11,0,0,0,1.09,4c.36.65.79,1.26,1.21,1.87.78,1.15,1.59,2.29,2.35,3.45a2.66,2.66,0,0,1,.31.69,6.59,6.59,0,0,1,.11,1.08,3.8,3.8,0,0,0,.56,1.57,3.28,3.28,0,0,0,2.76,1.61,6.15,6.15,0,0,0,2.34-.22,3.16,3.16,0,0,0,1.93-2.68,6.69,6.69,0,0,1,.07-.9,3,3,0,0,1,.43-1.07c.09-.14.19-.28.29-.41L224,52.2c.34-.49.67-1,1-1.47a10.72,10.72,0,0,0,.91-1.39,8.57,8.57,0,0,0,1-4.1A9.43,9.43,0,0,0,224.41,38.93Z" transform="translate(-22.7 -36.1)"/><path class="cls-7" d="M221,60.35l-5.25,0H215s-.06,0-.08.07h0a.17.17,0,0,0,0,.14.19.19,0,0,0,.07.11l1.13,1.13.54.54a.42.42,0,0,0,.37.12h2a1.45,1.45,0,0,0,.51,0c.14-.07.28-.28.39-.39l1.32-1.32C221.39,60.61,221.17,60.35,221,60.35Z" transform="translate(-22.7 -36.1)"/><path class="cls-6" d="M222.18,59.09a.63.63,0,0,0-.54-.31c-.33,0-.67,0-1,0h-4.58c-.41,0-.82,0-1.23,0a.75.75,0,0,0-.75.52.92.92,0,0,0,.28,1,2.44,2.44,0,0,0,1.11.09h2.15c1.27,0,2.54,0,3.81,0h.09a.73.73,0,0,0,.73-.74A1.17,1.17,0,0,0,222.18,59.09Z" transform="translate(-22.7 -36.1)"/><path class="cls-7" d="M215.76,40.42s-.14,1.66,2.39,2.45C218.15,42.87,218.42,40.86,215.76,40.42Z" transform="translate(-22.7 -36.1)"/><path class="cls-7" d="M215.62,42.72s-.14,1.66,2.39,2.45C218,45.17,218.29,43.16,215.62,42.72Z" transform="translate(-22.7 -36.1)"/><path class="cls-7" d="M215.67,45.15s-.14,1.66,2.39,2.46C218.06,47.61,218.33,45.59,215.67,45.15Z" transform="translate(-22.7 -36.1)"/><path class="cls-7" d="M215.69,47.46s-.13,1.66,2.39,2.46C218.08,49.92,218.36,47.91,215.69,47.46Z" transform="translate(-22.7 -36.1)"/><path class="cls-8" d="M218.06,42.94c1.05-.31,2.23-1,2.37-2.19a1.77,1.77,0,0,0,0-.23s0,0-.06,0a3,3,0,0,0-1.95,1,2.05,2.05,0,0,0-.43,1.18.82.82,0,0,0,0,.27S218.05,43,218.06,42.94Z" transform="translate(-22.7 -36.1)"/><path class="cls-8" d="M220.48,42.83a0,0,0,0,0,0,0h0a2.92,2.92,0,0,0-2,1,2,2,0,0,0-.42,1.18.77.77,0,0,0,0,.26s0,0,.05,0c1-.32,2.23-1,2.37-2.2A1.61,1.61,0,0,0,220.48,42.83Z" transform="translate(-22.7 -36.1)"/><path class="cls-8" d="M220.4,45.24a3,3,0,0,0-2,1A2.13,2.13,0,0,0,218,47.4a2.17,2.17,0,0,0,0,.26s.05,0,.06,0c1-.32,2.22-1,2.36-2.2a.81.81,0,0,0,0-.22S220.42,45.24,220.4,45.24Z" transform="translate(-22.7 -36.1)"/><path class="cls-8" d="M220.4,47.56a3,3,0,0,0-2,1,2.07,2.07,0,0,0-.43,1.18,2.44,2.44,0,0,0,0,.27s0,0,.06,0c1-.31,2.22-1,2.36-2.19a.89.89,0,0,0,0-.23S220.42,47.55,220.4,47.56Z" transform="translate(-22.7 -36.1)"/><path class="cls-8" d="M218.15,41.09v0c0-.05-.19-.06-.19,0V54.39c0,.66,0,1.33,0,2v1.44c0,.22,0,.46,0,.68v0c0,.06.19.06.19,0V41.77C218.15,41.55,218.17,41.31,218.15,41.09Z" transform="translate(-22.7 -36.1)"/><path class="cls-7" d="M221.53,57.11a4.61,4.61,0,0,0-1.05,0h-5.43a1,1,0,0,0-.86.48.92.92,0,0,0,.24,1.2,2,2,0,0,0,1.19.18h5.68a1,1,0,0,0,.95-.87A.93.93,0,0,0,221.53,57.11Z" transform="translate(-22.7 -36.1)"/></svg>