<svg id="Capa_1" data-name="Capa 1" xmlns="http://www.w3.org/2000/svg" viewBox="0 0 419.6 421.26"><defs><style>.cls-1{fill:none;stroke:#212121;stroke-miterlimit:10;stroke-width:10px;}</style></defs><title>profileblack2</title><circle class="cls-1" cx="210.5" cy="126.5" r="121.5"/><path class="cls-1" d="M437,702.4v-3.2c1-7.19,1.22-14.47,2.91-21.58,2.58-10.89,5.69-21.57,10.5-31.7A173.66,173.66,0,0,1,537,558.47c2.82-1.49,5.87-2.46,8.76-3.76,4.37-2,8.11-1.37,11.86,1.49a131.53,131.53,0,0,0,22,13.52c4.41,2,8.87,4,13.46,5.58,15.09,5.23,30.53,8.53,46.58,8.35,5-.19,10.1.28,15.12-.38a139,139,0,0,0,68.74-25.4c.54-.39,1.15-.69,1.64-1.12q6.48-5.64,14-1.55c4.16,1.77,8.3,3.62,12.32,5.7a155.68,155.68,0,0,1,32.09,20.61c.56.48,1.17.89,1.77,1.31,2.6,2.57,5.72,4.56,8.26,7.2a190.4,190.4,0,0,1,25.54,30.61c2.42,3.66,4.46,7.54,6.75,11.28a160.41,160.41,0,0,1,15.6,38.51,113,113,0,0,1,4.71,28.91c0,.77-.2,1.6.41,2.27v4c-.54.49-.38,1.15-.41,1.76s-.24,1.59.41,2.24v7.2c-.84,3.13-2.7,4.84-6.12,4.39H443.16c-3.42.46-5.32-1.23-6.16-4.39v-9.6c.53-.48.38-1.12.41-1.71v-1.38C437.38,703.51,437.52,702.88,437,702.4Z" transform="translate(-432 -305)"/></svg>